# 3ds Max Wavefront OBJ Exporter v0.97b - (c)2007 guruware
# File Created: 20.01.2015 20:34:44

mtllib Lightsaber.mtl

#
# object Cylinder001
#

v  1.4956 0.0000 -0.0000
v  0.7478 0.0000 -1.0528
v  0.7478 11.4647 -1.0528
v  1.4956 11.4647 -0.0000
v  -0.7478 0.0000 -1.0528
v  -0.7478 11.4647 -1.0528
v  -1.4956 0.0000 0.0000
v  -1.4956 11.4647 0.0000
v  -0.7478 0.0000 1.0528
v  -0.7478 11.4647 1.0528
v  0.7478 0.0000 1.0528
v  0.7478 11.4647 1.0528
v  0.4603 12.8978 -1.0528
v  0.9207 12.8978 -0.0000
v  -0.4603 12.8978 -1.0528
v  -0.9207 12.8978 0.0000
v  -0.4603 12.8978 1.0528
v  0.4603 12.8978 1.0528
v  1.2156 22.9294 -0.0000
v  0.6078 22.9294 -1.0528
v  0.6078 34.3941 -1.0528
v  1.2156 34.3941 -0.0000
v  -0.6078 22.9294 -1.0528
v  -0.6078 34.3941 -1.0528
v  -1.2156 22.9294 0.0000
v  -1.2156 34.3941 0.0000
v  -0.6078 22.9294 1.0528
v  -0.6078 34.3941 1.0528
v  0.6078 22.9294 1.0528
v  0.6078 34.3941 1.0528
v  0.6078 45.8589 -1.0528
v  1.2156 45.8589 -0.0000
v  -0.6078 45.8589 -1.0528
v  -1.2156 45.8589 0.0000
v  -0.6078 45.8589 1.0528
v  0.6078 45.8589 1.0528
v  0.4444 57.3236 -0.7698
v  0.8888 57.3236 -0.0000
v  -0.4444 57.3236 -0.7698
v  -0.8888 57.3236 0.0000
v  -0.4444 57.3236 0.7698
v  0.4444 57.3236 0.7698
v  0.4603 14.1841 -1.0528
v  0.9207 14.1841 -0.0000
v  -0.4603 14.1841 -1.0528
v  -0.9207 14.1841 0.0000
v  -0.4603 14.1841 1.0528
v  0.4603 14.1841 1.0528
v  0.6078 14.8768 -1.0528
v  1.2156 14.8768 -0.0000
v  -0.6078 14.8768 -1.0528
v  -1.2156 14.8768 0.0000
v  -0.6078 14.8768 1.0528
v  0.6078 14.8768 1.0528
# 54 vertices

vn 1.0000 0.0000 -0.0000
vn 0.4587 0.0000 -0.8886
vn 0.4961 0.0809 -0.8645
vn 0.9876 0.1559 -0.0161
vn -0.4587 0.0000 -0.8886
vn -0.4796 0.0495 -0.8761
vn -1.0000 0.0000 0.0000
vn -0.9876 0.1559 0.0161
vn -0.4587 0.0000 0.8886
vn -0.4961 0.0809 0.8645
vn 0.4587 0.0000 0.8886
vn 0.4796 0.0495 0.8761
vn 0.5206 0.0504 -0.8523
vn 0.9849 0.1707 -0.0271
vn -0.4993 0.0734 -0.8633
vn -0.9849 0.1707 0.0271
vn -0.5206 0.0504 0.8523
vn 0.4993 0.0734 0.8633
vn 0.5000 0.0000 -0.8660
vn 1.0000 0.0000 0.0000
vn -0.5000 -0.0000 -0.8660
vn -0.5000 0.0000 -0.8660
vn -1.0000 -0.0000 0.0000
vn -0.5000 0.0000 0.8660
vn 0.5000 0.0000 0.8660
vn 0.4999 0.0142 -0.8659
vn 0.9999 0.0142 0.0000
vn -0.4999 0.0142 -0.8659
vn -0.9999 0.0142 0.0000
vn -0.4999 0.0142 0.8659
vn 0.4999 0.0142 0.8659
vn 0.4998 0.0285 -0.8657
vn 0.9996 0.0285 0.0000
vn -0.4998 0.0285 -0.8657
vn -0.9996 0.0285 0.0000
vn -0.4998 0.0285 0.8657
vn 0.4998 0.0285 0.8657
vn 0.0000 -1.0000 -0.0000
vn 0.0000 1.0000 -0.0000
vn 0.5189 -0.0532 -0.8532
vn 0.9811 -0.1924 -0.0213
vn -0.5028 -0.0682 -0.8617
vn -0.9811 -0.1924 0.0213
vn -0.5189 -0.0532 0.8532
vn 0.5028 -0.0682 0.8617
vn 0.5361 -0.0790 -0.8405
vn 0.9846 -0.1740 -0.0136
vn -0.5222 -0.0569 -0.8509
vn -0.9846 -0.1740 0.0136
vn -0.5361 -0.0790 0.8405
vn 0.5222 -0.0569 0.8509
# 51 vertex normals

vt 0.3568 0.6195 1.4956
vt 0.3883 0.6195 1.2913
vt 0.3883 0.8728 1.2913
vt 0.3568 0.8728 1.4956
vt 0.4291 0.6195 1.2913
vt 0.4291 0.8728 1.2913
vt 0.4606 0.6195 1.4956
vt 0.4606 0.8728 1.4956
vt 0.4921 0.6195 1.2913
vt 0.4921 0.8728 1.2913
vt 0.5330 0.6195 1.2913
vt 0.5330 0.8728 1.2913
vt 0.5645 0.6195 1.4956
vt 0.5645 0.8728 1.4956
vt 0.3951 0.9045 1.1490
vt 0.3568 0.9045 0.9207
vt 0.4223 0.9045 1.1490
vt 0.4606 0.9045 0.9207
vt 0.4989 0.9045 1.1490
vt 0.5262 0.9045 1.1490
vt 0.5645 0.9045 0.9207
vt 0.0533 0.2245 1.2156
vt 0.0879 0.2245 1.2156
vt 0.0879 0.4779 1.2156
vt 0.0533 0.4779 1.2156
vt 0.1225 0.2245 1.2156
vt 0.1225 0.4779 1.2156
vt 0.1571 0.2245 1.2156
vt 0.1571 0.4779 1.2156
vt 0.1917 0.2245 1.2156
vt 0.1917 0.4779 1.2156
vt 0.2264 0.2245 1.2156
vt 0.2264 0.4779 1.2156
vt 0.2610 0.2245 1.2156
vt 0.2610 0.4779 1.2156
vt 0.0879 0.7312 1.2156
vt 0.0533 0.7312 1.2156
vt 0.1225 0.7312 1.2156
vt 0.1571 0.7312 1.2156
vt 0.1917 0.7312 1.2156
vt 0.2264 0.7312 1.2156
vt 0.2610 0.7312 1.2156
vt 0.0879 0.9845 0.8888
vt 0.0533 0.9845 0.8888
vt 0.1225 0.9845 0.8888
vt 0.1571 0.9845 0.8888
vt 0.1917 0.9845 0.8888
vt 0.2264 0.9845 0.8888
vt 0.2610 0.9845 0.8888
vt 0.6150 0.3424 -0.2500
vt 0.4764 0.2624 -0.2500
vt 0.3378 0.3424 -0.2500
vt 0.4764 0.5824 -0.2500
vt 0.3378 0.5024 -0.2500
vt 0.6150 0.5024 -0.2500
vt 0.6628 0.6725 0.2500
vt 0.6628 0.5125 0.2500
vt 0.8014 0.4325 0.2500
vt 0.9400 0.6725 0.2500
vt 0.9400 0.5125 0.2500
vt 0.8014 0.7525 0.2500
vt 0.3951 0.9329 1.1490
vt 0.3568 0.9329 0.9207
vt 0.4223 0.9329 1.1490
vt 0.4606 0.9329 0.9207
vt 0.4989 0.9329 1.1490
vt 0.5262 0.9329 1.1490
vt 0.5645 0.9329 0.9207
vt 0.0879 0.0466 1.2156
vt 0.0533 0.0466 1.2156
vt 0.0533 0.0313 0.9207
vt 0.0916 0.0313 1.1490
vt 0.1225 0.0466 1.2156
vt 0.1189 0.0313 1.1490
vt 0.1571 0.0466 1.2156
vt 0.1571 0.0313 0.9207
vt 0.1917 0.0466 1.2156
vt 0.1954 0.0313 1.1490
vt 0.2264 0.0466 1.2156
vt 0.2227 0.0313 1.1490
vt 0.2610 0.0466 1.2156
vt 0.2610 0.0313 0.9207
# 82 texture coords

g Cylinder001
usemtl Material__2
s 8
f 1/1/1 2/2/2 3/3/3 4/4/4 
f 2/2/2 5/5/5 6/6/6 3/3/3 
f 5/5/5 7/7/7 8/8/8 6/6/6 
f 7/7/7 9/9/9 10/10/10 8/8/8 
f 9/9/9 11/11/11 12/12/12 10/10/10 
f 11/11/11 1/13/1 4/14/4 12/12/12 
f 3/3/3 13/15/13 14/16/14 4/4/4 
f 6/6/6 15/17/15 13/15/13 3/3/3 
f 8/8/8 16/18/16 15/17/15 6/6/6 
f 10/10/10 17/19/17 16/18/16 8/8/8 
f 12/12/12 18/20/18 17/19/17 10/10/10 
f 4/14/4 14/21/14 18/20/18 12/12/12 
f 19/22/1 20/23/19 21/24/19 22/25/20 
f 20/23/19 23/26/21 24/27/22 21/24/19 
f 23/26/21 25/28/23 26/29/7 24/27/22 
f 25/28/23 27/30/24 28/31/24 26/29/7 
f 27/30/24 29/32/25 30/33/25 28/31/24 
f 29/32/25 19/34/1 22/35/20 30/33/25 
f 22/25/20 21/24/19 31/36/26 32/37/27 
f 21/24/19 24/27/22 33/38/28 31/36/26 
f 24/27/22 26/29/7 34/39/29 33/38/28 
f 26/29/7 28/31/24 35/40/30 34/39/29 
f 28/31/24 30/33/25 36/41/31 35/40/30 
f 30/33/25 22/35/20 32/42/27 36/41/31 
f 32/37/27 31/36/26 37/43/32 38/44/33 
f 31/36/26 33/38/28 39/45/34 37/43/32 
f 33/38/28 34/39/29 40/46/35 39/45/34 
f 34/39/29 35/40/30 41/47/36 40/46/35 
f 35/40/30 36/41/31 42/48/37 41/47/36 
f 36/41/31 32/42/27 38/49/33 42/48/37 
s 1
f 9/50/38 7/51/38 5/52/38 1/53/38 
f 5/52/38 2/54/38 1/53/38 
f 11/55/38 9/50/38 1/53/38 
f 37/56/39 39/57/39 40/58/39 42/59/39 
f 40/58/39 41/60/39 42/59/39 
f 38/61/39 37/56/39 42/59/39 
s 8
f 43/62/40 44/63/41 14/16/14 13/15/13 
f 45/64/42 43/62/40 13/15/13 15/17/15 
f 46/65/43 45/64/42 15/17/15 16/18/16 
f 47/66/44 46/65/43 16/18/16 17/19/17 
f 48/67/45 47/66/44 17/19/17 18/20/18 
f 44/68/41 48/67/45 18/20/18 14/21/14 
f 49/69/46 50/70/47 44/71/41 43/72/40 
f 51/73/48 49/69/46 43/72/40 45/74/42 
f 52/75/49 51/73/48 45/74/42 46/76/43 
f 53/77/50 52/75/49 46/76/43 47/78/44 
f 54/79/51 53/77/50 47/78/44 48/80/45 
f 50/81/47 54/79/51 48/80/45 44/82/41 
f 20/23/19 19/22/1 50/70/47 49/69/46 
f 23/26/21 20/23/19 49/69/46 51/73/48 
f 25/28/23 23/26/21 51/73/48 52/75/49 
f 27/30/24 25/28/23 52/75/49 53/77/50 
f 29/32/25 27/30/24 53/77/50 54/79/51 
f 19/34/1 29/32/25 54/79/51 50/81/47 
# 50 polygons - 4 triangles

