# 3ds Max Wavefront OBJ Exporter v0.97b - (c)2007 guruware
# File Created: 21.01.2015 21:22:56

mtllib Plakate.mtl

#
# object Box001
#

v  -40.1350 0.0000 0.0688
v  -40.1350 0.0000 -35.9676
v  -13.3783 0.0000 -35.9676
v  -13.3783 0.0000 0.0688
v  13.3783 1.4529 -35.9676
v  13.3783 0.0000 1.7686
v  40.1350 0.0000 -35.9676
v  43.2480 0.0000 0.0688
v  -40.8797 0.0000 -72.0040
v  -13.3783 0.0000 -72.0040
v  13.3783 0.0000 -72.0040
v  40.1350 0.0000 -72.0040
v  -40.1350 0.0000 -108.0405
v  -13.3783 0.0000 -109.5432
v  13.3783 0.0000 -108.0405
v  40.1350 4.0504 -108.0405
v  -40.1350 0.5730 0.0688
v  -13.3783 0.5730 0.0688
v  -13.3783 0.5730 -35.9676
v  -40.1350 0.5730 -35.9676
v  13.3783 0.5730 1.7686
v  13.3783 2.0259 -35.9676
v  43.2480 0.5730 0.0688
v  40.1350 0.5730 -35.9676
v  -13.3783 0.5730 -72.0040
v  -40.8797 0.5730 -72.0040
v  13.3783 0.5730 -72.0040
v  40.1350 0.5730 -72.0040
v  -13.3783 0.5730 -109.5432
v  -40.1350 0.5730 -108.0405
v  13.3783 0.5730 -108.0405
v  40.1350 4.6234 -108.0405
# 32 vertices

vn 0.0000 -1.0000 -0.0000
vn 0.0216 -0.9997 0.0060
vn 0.0116 -0.9999 -0.0120
vn 0.0002 -1.0000 0.0006
vn -0.0099 -0.9996 -0.0271
vn -0.0424 -0.9990 -0.0114
vn 0.0209 -0.9998 -0.0025
vn -0.0111 -0.9990 -0.0440
vn 0.0737 -0.9973 -0.0000
vn 0.0892 -0.9950 -0.0456
vn 0.0000 1.0000 -0.0000
vn -0.0116 0.9999 0.0120
vn -0.0216 0.9997 -0.0060
vn 0.0099 0.9996 0.0271
vn -0.0002 1.0000 -0.0006
vn 0.0424 0.9990 0.0114
vn -0.0209 0.9998 0.0025
vn 0.0111 0.9990 0.0440
vn -0.0737 0.9973 -0.0000
vn -0.0892 0.9950 0.0456
vn 0.0000 0.0000 1.0000
vn -0.0317 0.0000 0.9995
vn -0.0033 0.0000 1.0000
vn 0.0568 0.0000 0.9984
vn 0.9963 0.0000 -0.0861
vn 0.9991 0.0000 -0.0431
vn 1.0000 0.0000 -0.0000
vn 0.0000 0.0000 -1.0000
vn 0.0295 0.0000 -0.9996
vn 0.0268 0.0000 -0.9996
vn -0.0561 0.0000 -0.9984
vn -0.9998 0.0000 -0.0207
vn -1.0000 0.0000 0.0000
vn -1.0000 0.0000 -0.0000
vn -0.9999 0.0000 0.0103
# 35 vertex normals

vt 0.9443 0.3656 0.0000
vt 0.9466 0.5543 0.0000
vt 0.8065 0.5560 0.0000
vt 0.8042 0.3674 0.0000
vt 0.6663 0.5578 0.0000
vt 0.6640 0.3602 0.0000
vt 0.5264 0.5595 0.0000
vt 0.5078 0.3711 0.0000
vt 0.9529 0.7429 0.0000
vt 0.8089 0.7447 0.0000
vt 0.6688 0.7465 0.0000
vt 0.5288 0.7482 0.0000
vt 0.9513 0.9316 0.0000
vt 0.8113 0.9413 0.0000
vt 0.6712 0.9351 0.0000
vt 0.5308 0.9369 0.0000
vt 0.4783 0.9442 0.0000
vt 0.3391 0.9451 0.0000
vt 0.3381 0.7564 0.0000
vt 0.4774 0.7555 0.0000
vt 0.1999 0.9549 0.0000
vt 0.1980 0.7572 0.0000
vt 0.0444 0.9469 0.0000
vt 0.0597 0.7582 0.0000
vt 0.3372 0.5677 0.0000
vt 0.4803 0.5668 0.0000
vt 0.1980 0.5686 0.0000
vt 0.0587 0.5695 0.0000
vt 0.3362 0.3712 0.0000
vt 0.4755 0.3782 0.0000
vt 0.1970 0.3800 0.0000
vt 0.0554 0.3806 0.0000
vt 0.2363 0.1636 0.0000
vt 0.3764 0.1636 0.0000
vt 0.3764 0.1666 0.0000
vt 0.2363 0.1666 0.0000
vt 0.5165 0.1636 0.0000
vt 0.5165 0.1666 0.0000
vt 0.6729 0.1636 0.0000
vt 0.6729 0.1666 0.0000
vt 0.2230 0.2334 0.0000
vt 0.4124 0.2334 0.0000
vt 0.4124 0.2364 0.0000
vt 0.2230 0.2364 0.0000
vt 0.6004 0.2334 0.0000
vt 0.6004 0.2364 0.0000
vt 0.7884 0.2546 0.0000
vt 0.7884 0.2576 0.0000
vt 0.0844 0.0860 0.0000
vt 0.2245 0.0648 0.0000
vt 0.2245 0.0678 0.0000
vt 0.0844 0.0890 0.0000
vt 0.3646 0.0648 0.0000
vt 0.3646 0.0678 0.0000
vt 0.5047 0.0648 0.0000
vt 0.5047 0.0678 0.0000
vt 0.6934 0.0648 0.0000
vt 0.6934 0.0678 0.0000
vt 0.8820 0.0648 0.0000
vt 0.8820 0.0678 0.0000
vt 0.4777 0.7556 0.0000
vt 0.4786 0.9442 0.0000
# 62 texture coords

g Box001
usemtl Material__25
s 2
f 1/1/1 2/2/1 3/3/2 4/4/3 
f 4/4/3 3/3/2 5/5/4 6/6/5 
f 6/6/5 5/5/4 7/7/6 8/8/1 
f 2/2/1 9/9/1 10/10/1 3/3/2 
f 3/3/2 10/10/1 11/11/7 5/5/4 
f 5/5/4 11/11/7 12/12/8 7/7/6 
f 9/9/1 13/13/1 14/14/1 10/10/1 
f 10/10/1 14/14/1 15/15/9 11/11/7 
f 11/11/7 15/15/9 16/16/10 12/12/8 
s 4
f 17/17/11 18/18/12 19/19/13 20/20/11 
f 18/18/12 21/21/14 22/22/15 19/19/13 
f 21/21/14 23/23/11 24/24/16 22/22/15 
f 20/20/11 19/19/13 25/25/11 26/26/11 
f 19/19/13 22/22/15 27/27/17 25/25/11 
f 22/22/15 24/24/16 28/28/18 27/27/17 
f 26/26/11 25/25/11 29/29/11 30/30/11 
f 25/25/11 27/27/17 31/31/19 29/29/11 
f 27/27/17 28/28/18 32/32/20 31/31/19 
s 8
f 1/33/21 4/34/22 18/35/22 17/36/21 
f 4/34/22 6/37/23 21/38/23 18/35/22 
f 6/37/23 8/39/24 23/40/24 21/38/23 
s 16
f 8/41/25 7/42/26 24/43/26 23/44/25 
f 7/42/26 12/45/27 28/46/27 24/43/26 
f 12/45/27 16/47/27 32/48/27 28/46/27 
s 32
f 16/49/28 15/50/29 31/51/30 32/52/28 
f 15/50/29 14/53/28 29/54/28 31/51/30 
f 14/53/28 13/55/31 30/56/31 29/54/28 
s 64
f 13/55/32 9/57/33 26/58/34 30/56/32 
f 9/57/33 2/59/35 20/60/35 26/58/34 
f 2/61/35 1/62/34 17/17/34 20/20/35 
# 30 polygons

