# 3ds Max Wavefront OBJ Exporter v0.97b - (c)2007 guruware
# File Created: 20.01.2015 11:07:44

mtllib Pizzakarton_auf.mtl

#
# object Box001
#

v  -9.6750 0.0000 -0.0000
v  0.4002 0.0000 -0.0000
v  0.0000 0.0000 9.4870
v  -9.2718 0.0000 9.4870
v  0.0000 0.4550 9.1258
v  0.4002 0.4550 -0.0000
v  -9.3137 0.4550 -0.0000
v  -8.9105 0.4550 9.1258
v  0.0000 1.5140 9.6234
v  -9.2718 1.5140 9.6234
v  10.4754 0.0000 -0.0000
v  10.4754 1.6591 -0.0000
v  9.2718 1.5140 9.6234
v  9.2718 0.0000 9.4870
v  0.0000 0.0000 -10.2466
v  0.0000 1.6591 -10.2466
v  9.2718 1.6591 -9.4870
v  9.2718 0.0000 -9.4870
v  -9.6750 1.6591 -0.0000
v  -9.2718 1.6591 -9.4870
v  -9.2718 0.0000 -9.4870
v  -0.4497 18.9430 15.1571
v  -0.4497 19.0825 14.8239
v  -9.3602 18.4332 14.5521
v  -9.7215 18.2937 14.8853
v  10.1141 1.6591 -0.0000
v  8.9105 1.6535 9.2902
v  0.0000 1.6591 -9.8854
v  8.9105 1.6591 -9.1258
v  -9.3137 1.6591 -0.0000
v  -8.9105 1.6591 -9.1258
v  0.0000 1.6535 9.2902
v  -8.9105 1.6535 9.2902
v  10.1141 0.4550 -0.0000
v  8.9105 0.4550 9.1258
v  0.0000 0.4550 -9.8854
v  8.9105 0.4550 -9.1258
v  -8.9105 0.4550 -9.1258
v  0.0000 17.9353 16.4982
v  -9.2718 17.2861 16.2264
v  10.0341 2.0601 8.3189
v  9.6728 2.1996 7.9857
v  9.6728 17.9717 14.5887
v  10.0341 17.8322 14.9219
v  0.0000 18.0748 16.1650
v  8.9105 17.4256 15.8932
v  -9.9021 2.1996 7.9857
v  -10.2634 2.0601 8.3189
v  -10.2634 17.8322 14.9219
v  -9.9021 17.9717 14.5887
v  -8.9105 17.4256 15.8932
v  9.2718 17.2861 16.2264
v  8.4608 18.4332 14.5521
v  8.8221 18.2937 14.8853
v  8.6180 0.7260 0.2429
v  8.3090 0.8869 -1.5099
v  8.1469 1.4036 -1.6487
v  8.4559 1.2427 0.1041
v  6.8344 0.8869 -4.0640
v  6.6723 1.4036 -4.2028
v  5.7048 0.8869 -5.0118
v  5.5427 1.4036 -5.1506
v  4.5752 0.8869 -5.9597
v  1.8038 0.8869 -6.9684
v  1.6417 1.4036 -7.1072
v  4.4131 1.4036 -6.0985
v  -1.1454 0.8869 -6.9684
v  -1.3075 1.4036 -7.1072
v  -3.9168 0.8869 -5.9597
v  -4.0789 1.4036 -6.0985
v  -5.4263 1.3096 -3.5102
v  -5.5884 1.8263 -3.6490
v  6.9802 1.1897 3.3591
v  7.8864 1.0566 1.9125
v  7.7243 1.5733 1.7737
v  6.8181 1.7064 3.2203
v  -0.1087 0.8869 1.8515
v  -0.4993 1.4036 1.5210
# 78 vertices

vn 0.0000 -1.0000 -0.0000
vn 0.0000 1.0000 -0.0000
vn 0.0000 -0.0898 0.9960
vn 1.0000 -0.0006 -0.0008
vn 1.0000 0.0000 -0.0015
vn 0.9920 -0.0101 0.1257
vn 0.9920 -0.0113 0.1259
vn 0.0000 0.0000 -1.0000
vn -0.0000 0.0000 -1.0000
vn 0.0817 0.0000 -0.9967
vn -1.0000 0.0000 -0.0000
vn -1.0000 -0.0002 -0.0002
vn -0.9991 0.0000 -0.0425
vn -0.0771 0.9339 0.3492
vn 0.1760 0.9839 0.0302
vn 0.0000 0.1359 -0.9907
vn -0.9915 0.0089 -0.1296
vn -0.0849 0.0000 0.9964
vn 0.9990 0.0000 0.0441
vn -0.0000 -0.3862 0.9224
vn 0.7071 0.2731 -0.6523
vn 0.0000 0.3862 -0.9224
vn -0.7071 0.2731 -0.6523
vn -0.0000 -0.9224 -0.3862
vn -0.8188 -0.2217 0.5296
vn -0.0000 0.9224 0.3862
vn 0.8188 0.2217 -0.5296
vn 0.0000 -0.9224 -0.3862
vn -0.8803 0.1832 -0.4377
vn 0.0000 0.9224 0.3862
vn 0.8803 -0.1832 0.4377
vn -0.0730 0.7854 0.6146
vn 0.3136 -0.7057 -0.6354
vn -0.0767 -0.8093 -0.5824
vn -0.1909 -0.8144 -0.5479
vn 0.9920 0.0000 -0.1259
vn -0.9991 -0.0034 0.0419
vn -0.9991 -0.0038 0.0418
vn -0.1826 0.9831 0.0156
vn -0.9914 0.0000 0.1308
vn 0.9990 0.0030 -0.0437
vn -0.0817 0.0000 -0.9967
vn 0.0771 0.9339 0.3492
vn 0.0849 0.0000 0.9964
vn 0.0000 -0.3862 0.9224
vn -0.0000 0.3862 -0.9224
vn 0.0737 0.8090 0.5832
vn 0.0759 -0.7848 -0.6151
vn 0.9384 0.3255 0.1160
vn 0.9343 0.2171 -0.2829
vn 0.9106 0.1866 -0.3687
vn 0.9470 0.3146 0.0654
vn 0.7896 0.0845 -0.6077
vn 0.7367 0.0500 -0.6743
vn 0.6428 -0.0041 -0.7660
vn 0.5358 -0.0581 -0.8423
vn 0.2072 -0.1926 -0.9591
vn 0.1350 -0.2173 -0.9667
vn 0.4613 -0.0923 -0.8825
vn -0.1390 -0.2973 -0.9446
vn -0.1892 -0.3097 -0.9318
vn -0.5824 -0.3763 -0.7206
vn -0.6266 -0.3794 -0.6808
vn -0.8169 -0.3742 -0.4389
vn 0.8003 0.3764 0.4667
vn 0.8435 0.3694 0.3900
vn 0.8417 0.3697 0.3935
vn -0.0098 -0.9983 0.0569
vn -0.0096 -0.9999 -0.0081
vn -0.0155 -0.9998 0.0135
vn -0.1021 -0.9936 0.0478
vn 0.1521 -0.9819 -0.1131
vn 0.4575 -0.8125 0.3613
vn -0.0253 0.9988 -0.0412
vn -0.2213 0.9668 0.1278
vn -0.0004 0.9998 0.0192
vn 0.0279 0.9994 -0.0194
vn -0.0280 0.9865 -0.1615
vn -0.4575 0.8125 -0.3613
vn -0.7124 -0.0636 0.6989
vn -0.0147 -0.9986 0.0500
vn 0.0788 -0.9731 0.2165
vn -0.0105 -0.9953 0.0965
vn 0.0227 0.9993 -0.0293
vn -0.0788 0.9731 -0.2165
vn 0.0595 0.9971 -0.0483
vn -0.2192 0.3039 0.9272
# 87 vertex normals

vt 0.3419 0.5166 0.0000
vt 0.1759 0.5166 0.0000
vt 0.1825 0.3603 0.0000
vt 0.3352 0.3603 0.0000
vt 0.5315 0.3231 0.0000
vt 0.5249 0.1728 0.0000
vt 0.6849 0.1728 0.0000
vt 0.6783 0.3231 0.0000
vt 0.5177 0.6557 0.0000
vt 0.5177 0.6308 0.0000
vt 0.6704 0.6308 0.0000
vt 0.6704 0.6557 0.0000
vt 0.1663 0.8581 0.0000
vt 0.1663 0.8307 0.0000
vt 0.3248 0.8331 0.0000
vt 0.3225 0.8581 0.0000
vt 0.1627 0.9589 0.0000
vt 0.1627 0.9315 0.0000
vt 0.3154 0.9315 0.0000
vt 0.3154 0.9589 0.0000
vt 0.1685 0.9085 0.0000
vt 0.1685 0.8811 0.0000
vt 0.3248 0.8811 0.0000
vt 0.3248 0.9085 0.0000
vt 0.1701 0.7856 0.0000
vt 0.1701 0.7801 0.0000
vt 0.3169 0.7756 0.0000
vt 0.3228 0.7811 0.0000
vt 0.3822 0.1827 0.0000
vt 0.3881 0.1827 0.0000
vt 0.4080 0.3357 0.0000
vt 0.4020 0.3412 0.0000
vt 0.5547 0.0139 0.0000
vt 0.5547 0.0199 0.0000
vt 0.4080 0.0324 0.0000
vt 0.4020 0.0264 0.0000
vt 0.7141 0.1827 0.0000
vt 0.7081 0.1827 0.0000
vt 0.7015 0.0324 0.0000
vt 0.7074 0.0264 0.0000
vt 0.5117 0.9493 0.0000
vt 0.5117 0.9690 0.0000
vt 0.3650 0.9690 0.0000
vt 0.3650 0.9493 0.0000
vt 0.1762 0.8270 0.0000
vt 0.1762 0.8468 0.0000
vt 0.0259 0.8468 0.0000
vt 0.0232 0.8271 0.0000
vt 0.8402 0.4216 0.0000
vt 0.8402 0.4414 0.0000
vt 0.6934 0.4414 0.0000
vt 0.6934 0.4216 0.0000
vt 0.1735 0.8699 0.0000
vt 0.1735 0.8897 0.0000
vt 0.0232 0.8897 0.0000
vt 0.0232 0.8699 0.0000
vt 0.5177 0.3603 0.0000
vt 0.6704 0.3710 0.0000
vt 0.7083 0.0159 0.0000
vt 0.7084 0.0100 0.0000
vt 0.9900 0.0138 0.0000
vt 0.9899 0.0198 0.0000
vt 0.5117 0.6788 0.0000
vt 0.6585 0.6895 0.0000
vt 0.6585 0.9493 0.0000
vt 0.2923 0.7156 0.0000
vt 0.2921 0.7216 0.0000
vt 0.0106 0.7144 0.0000
vt 0.0107 0.7084 0.0000
vt 0.8003 0.2788 0.0000
vt 0.8001 0.2707 0.0000
vt 0.8270 0.2728 0.0000
vt 0.8272 0.2809 0.0000
vt 0.2915 0.7449 0.0000
vt 0.0100 0.7377 0.0000
vt 0.8167 0.3177 0.0000
vt 0.8172 0.3097 0.0000
vt 0.8441 0.3086 0.0000
vt 0.8437 0.3167 0.0000
vt 0.9896 0.0932 0.0000
vt 0.7080 0.0894 0.0000
vt 0.7083 0.0661 0.0000
vt 0.9899 0.0700 0.0000
vt 0.7825 0.3177 0.0000
vt 0.7842 0.3098 0.0000
vt 0.8090 0.3096 0.0000
vt 0.8074 0.3176 0.0000
vt 0.9750 0.3908 0.0000
vt 0.6934 0.3836 0.0000
vt 0.6940 0.3603 0.0000
vt 0.9756 0.3676 0.0000
vt 0.8186 0.2381 0.0000
vt 0.8264 0.2361 0.0000
vt 0.8272 0.2610 0.0000
vt 0.8193 0.2630 0.0000
vt 0.9896 0.0431 0.0000
vt 0.7080 0.0392 0.0000
vt 0.3154 0.8032 0.0000
vt 0.1627 0.8077 0.0000
vt 0.8430 0.2809 0.0000
vt 0.8388 0.2736 0.0000
vt 0.8399 0.2450 0.0000
vt 0.8441 0.2523 0.0000
vt 0.1700 0.7774 0.0000
vt 0.1774 0.7994 0.0000
vt 0.0306 0.8039 0.0000
vt 0.0232 0.7818 0.0000
vt 0.3167 0.7818 0.0000
vt 0.3227 0.7763 0.0000
vt 0.3301 0.7984 0.0000
vt 0.3241 0.8039 0.0000
vt 0.3352 0.6729 0.0000
vt 0.1825 0.6854 0.0000
vt 0.3848 0.0225 0.0000
vt 0.5315 0.0100 0.0000
vt 0.3650 0.1728 0.0000
vt 0.0100 0.8581 0.0000
vt 0.0100 0.8307 0.0000
vt 0.0122 0.9085 0.0000
vt 0.0100 0.8835 0.0000
vt 0.7074 0.3412 0.0000
vt 0.7015 0.3357 0.0000
vt 0.3265 0.8270 0.0000
vt 0.3265 0.8468 0.0000
vt 0.3265 0.8700 0.0000
vt 0.3238 0.8897 0.0000
vt 0.0100 0.5166 0.0000
vt 0.0298 0.3603 0.0000
vt 0.3848 0.3231 0.0000
vt 0.3650 0.6557 0.0000
vt 0.3650 0.6308 0.0000
vt 0.0100 0.9589 0.0000
vt 0.0100 0.9315 0.0000
vt 0.0174 0.7811 0.0000
vt 0.0234 0.7756 0.0000
vt 0.6585 0.9690 0.0000
vt 0.9870 0.4216 0.0000
vt 0.9870 0.4414 0.0000
vt 0.3650 0.3710 0.0000
vt 0.3650 0.6895 0.0000
vt 0.0100 0.8032 0.0000
vt 0.0298 0.6729 0.0000
vt 0.6783 0.0225 0.0000
vt 0.7826 0.8096 0.0000
vt 0.7479 0.8050 0.0000
vt 0.7455 0.7944 0.0000
vt 0.7802 0.7990 0.0000
vt 0.6971 0.8029 0.0000
vt 0.6948 0.7924 0.0000
vt 0.8893 0.8301 0.0000
vt 0.8861 0.8197 0.0000
vt 0.9086 0.8197 0.0000
vt 0.9118 0.8301 0.0000
vt 0.8669 0.8301 0.0000
vt 0.8117 0.8301 0.0000
vt 0.8085 0.8197 0.0000
vt 0.8636 0.8197 0.0000
vt 0.7531 0.8301 0.0000
vt 0.7499 0.8197 0.0000
vt 0.6980 0.8301 0.0000
vt 0.6948 0.8197 0.0000
vt 0.8501 0.7846 0.0000
vt 0.8014 0.7760 0.0000
vt 0.8041 0.7655 0.0000
vt 0.8529 0.7741 0.0000
vt 0.8449 0.8027 0.0000
vt 0.8160 0.8042 0.0000
vt 0.8136 0.7937 0.0000
vt 0.8425 0.7921 0.0000
vt 0.9798 0.6877 0.0000
vt 0.8520 0.7555 0.0000
vt 0.8544 0.5731 0.0000
vt 0.9656 0.6178 0.0000
vt 0.8837 0.5734 0.0000
vt 0.9387 0.5943 0.0000
vt 0.9755 0.6534 0.0000
vt 0.3122 0.2770 0.0000
vt 0.2715 0.2922 0.0000
vt 0.1997 0.2922 0.0000
vt 0.2331 0.0732 0.0000
vt 0.1660 0.2800 0.0000
vt 0.3579 0.2066 0.0000
vt 0.3385 0.2426 0.0000
vt 0.6948 0.7846 0.0000
vt 0.7013 0.7741 0.0000
vt 0.7026 0.7402 0.0000
vt 0.6948 0.6824 0.0000
vt 0.7245 0.6308 0.0000
vt 0.7698 0.5928 0.0000
vt 0.8251 0.5728 0.0000
vt 0.1322 0.2678 0.0000
vt 0.0773 0.2221 0.0000
vt 0.0414 0.1604 0.0000
vt 0.0289 0.0903 0.0000
vt 0.0622 0.0306 0.0000
vt 0.8359 0.8490 0.0000
vt 0.6948 0.8483 0.0000
vt 0.6976 0.8377 0.0000
vt 0.8432 0.8382 0.0000
# 199 texture coords

g Box001
usemtl Material__25
s 2
f 1/1/1 2/2/1 3/3/1 4/4/1 
s 4
f 5/5/2 6/6/2 7/7/2 8/8/2 
s 8
f 3/9/3 9/10/3 10/11/3 4/12/3 
s 16
f 11/13/4 12/14/5 13/15/6 14/16/7 
s 32
f 15/17/8 16/18/9 17/19/10 18/20/10 
s 64
f 1/21/11 19/22/12 20/23/13 21/24/13 
s off
f 22/25/14 23/26/14 24/27/14 25/28/14 
f 12/29/15 26/30/15 27/31/15 13/32/15 
f 16/33/2 28/34/2 29/35/2 17/36/2 
f 19/37/2 30/38/2 31/39/2 20/40/2 
f 32/41/16 5/42/16 8/43/16 33/44/16 
f 26/45/17 34/46/17 35/47/17 27/48/17 
f 28/49/18 36/50/18 37/51/18 29/52/18 
f 30/53/19 7/54/19 38/55/19 31/56/19 
f 9/10/20 39/57/20 40/58/20 10/11/20 
f 41/59/21 42/60/21 43/61/21 44/62/21 
f 32/41/22 45/63/22 46/64/22 27/65/22 
f 47/66/23 48/67/23 49/68/23 50/69/23 
f 33/70/24 10/71/24 48/72/24 47/73/24 
f 10/74/25 40/75/25 49/68/25 48/67/25 
f 40/76/26 51/77/26 50/78/26 49/79/26 
f 51/80/27 33/81/27 47/82/27 50/83/27 
f 13/84/28 27/85/28 42/86/28 41/87/28 
f 27/88/29 46/89/29 43/90/29 42/91/29 
f 46/92/30 52/93/30 44/94/30 43/95/30 
f 52/96/31 13/97/31 41/59/31 44/62/31 
f 40/98/32 39/99/32 22/25/32 25/28/32 
f 52/100/33 46/101/33 53/102/33 54/103/33 
f 45/104/34 23/105/34 53/106/34 46/107/34 
f 51/108/35 40/109/35 25/110/35 24/111/35 
s 2
f 21/112/1 15/113/1 2/2/1 1/1/1 
s 4
f 37/114/2 36/115/2 6/6/2 34/116/2 
s 16
f 18/117/36 17/118/36 12/14/5 11/13/4 
s 64
f 4/119/37 10/120/38 19/22/12 1/21/11 
s off
f 12/29/2 17/36/2 29/35/2 26/30/2 
f 19/37/39 10/121/39 33/122/39 30/38/39 
f 29/123/40 37/124/40 34/46/40 26/45/40 
f 33/125/41 8/126/41 7/54/41 30/53/41 
s 2
f 2/2/1 11/127/1 14/128/1 3/3/1 
s 4
f 35/129/2 34/116/2 6/6/2 5/5/2 
s 8
f 14/130/3 13/131/3 9/10/3 3/9/3 
s 32
f 21/132/42 20/133/42 16/18/9 15/17/8 
s off
f 22/25/43 54/134/43 53/135/43 23/26/43 
f 16/33/2 20/40/2 31/39/2 28/34/2 
f 27/65/16 35/136/16 5/42/16 32/41/16 
f 31/137/44 38/138/44 36/50/44 28/49/44 
f 13/131/45 52/139/45 39/57/45 9/10/45 
f 33/44/46 51/140/46 45/63/46 32/41/46 
f 39/99/47 52/141/47 54/134/47 22/25/47 
f 51/108/48 24/111/48 23/105/48 45/104/48 
s 2
f 18/142/1 11/127/1 2/2/1 15/113/1 
s 4
f 38/143/2 7/7/2 6/6/2 36/115/2 
s 8
f 55/144/49 56/145/50 57/146/51 58/147/52 
f 56/145/50 59/148/53 60/149/54 57/146/51 
f 61/150/55 62/151/55 60/152/54 59/153/53 
f 63/154/56 64/155/57 65/156/58 66/157/59 
f 64/155/57 67/158/60 68/159/61 65/156/58 
f 67/158/60 69/160/62 70/161/63 68/159/61 
f 69/162/62 71/163/64 72/164/64 70/165/63 
f 73/166/65 74/167/66 75/168/67 76/169/65 
f 74/167/66 55/144/49 58/147/52 75/168/67 
s 1
f 73/170/68 77/171/69 61/172/70 55/173/71 
f 61/172/70 59/174/1 56/175/72 55/173/71 
f 74/176/73 73/170/68 55/173/71 
f 58/177/74 57/178/75 60/179/76 78/180/77 
f 60/179/76 62/181/2 78/180/77 
f 58/177/74 78/180/77 76/182/78 75/183/79 
s off
f 71/163/80 77/184/80 78/185/80 72/164/80 
s 8
f 63/154/56 66/157/59 62/151/55 61/150/55 
s 1
f 71/186/81 69/187/82 67/188/83 61/172/70 
f 67/188/83 64/189/1 63/190/1 61/172/70 
f 77/171/69 71/186/81 61/172/70 
f 66/191/2 65/192/2 68/193/84 78/180/77 
f 68/193/84 70/194/85 72/195/86 78/180/77 
f 62/181/2 66/191/2 78/180/77 
s off
f 77/196/87 73/197/87 76/198/87 78/199/87 
# 72 polygons - 4 triangles

