# 3ds Max Wavefront OBJ Exporter v0.97b - (c)2007 guruware
# File Created: 19.01.2015 00:24:39

mtllib Book.mtl

#
# object Box001
#

v  -11.3794 0.0000 -0.0000
v  0.4266 0.0000 -0.0000
v  0.0000 0.0000 15.1543
v  -11.3794 0.0000 14.3942
v  -11.3794 4.7300 14.3942
v  0.0000 4.7300 15.1543
v  -0.1204 4.7300 -0.0000
v  -12.6999 4.7300 -0.0000
v  -0.0645 0.7225 14.1265
v  -0.0645 4.0075 14.1265
v  -10.6569 4.0075 13.1901
v  -10.6569 0.7225 13.1901
v  11.3811 0.7225 -0.0000
v  11.6077 4.0075 -0.0000
v  10.5279 4.0075 13.5428
v  10.5279 0.7225 13.5428
v  -0.0645 0.7225 -14.0296
v  -0.0645 4.0075 -14.0296
v  10.5279 4.0075 -13.5428
v  10.5279 0.7225 -13.5428
v  -11.3794 4.7300 -14.3942
v  -11.3794 0.0000 -14.3942
v  0.0000 0.0000 -15.0574
v  11.3794 0.0000 -14.3942
v  0.0000 4.7300 -15.0574
v  12.4591 4.7300 -0.0000
v  11.3794 4.7300 -14.3942
v  11.3794 4.7300 14.3942
v  12.2325 0.0000 -0.0000
v  11.3794 0.0000 14.3942
v  0.3612 0.7225 -15.0574
v  11.3794 0.7225 -14.3942
v  -10.6569 4.0075 -14.3942
v  -10.6569 0.7225 -14.3942
v  0.3612 4.0075 -15.0574
v  12.4591 4.0075 -0.0000
v  11.3794 4.0075 -14.3942
v  0.3612 4.0075 15.1543
v  11.3794 4.0075 14.3942
v  -10.6569 0.7225 14.3942
v  -10.6569 4.0075 14.3942
v  0.3612 0.7225 15.1543
v  12.2325 0.7225 -0.0000
v  11.3794 0.7225 14.3942
v  -10.6569 4.0075 -13.1901
v  -10.6569 0.7225 -13.1901
# 46 vertices

vn 0.0000 -1.0000 -0.0000
vn 0.0000 1.0000 -0.0000
vn -0.0166 -0.0000 0.9999
vn -0.0881 -0.0000 0.9961
vn -0.0881 0.0000 0.9961
vn 0.9979 -0.0636 0.0071
vn 0.9980 -0.0636 0.0070
vn 0.9978 -0.0104 0.0654
vn 0.9980 0.0000 0.0629
vn -0.0166 0.0000 -0.9999
vn 0.0459 -0.0000 -0.9989
vn 0.0459 0.0000 -0.9989
vn -0.9695 -0.2424 -0.0355
vn -0.9696 -0.2422 -0.0347
vn -0.9982 -0.0562 -0.0185
vn -1.0000 0.0000 -0.0000
vn 0.9907 -0.1360 -0.0014
vn 0.0591 -0.0148 -0.9981
vn 0.0000 0.0000 -1.0000
vn -0.0591 -0.0443 -0.9973
vn 0.9972 0.0000 -0.0748
vn 0.0677 0.0169 0.9976
vn 0.0000 0.0000 1.0000
vn -0.0676 0.0507 0.9964
vn 0.9982 0.0000 0.0592
vn 1.0000 0.0000 -0.0000
vn -0.0000 1.0000 0.0000
vn 0.9970 -0.0104 -0.0770
vn 0.9968 0.0000 -0.0795
vn -0.9958 -0.0562 0.0729
vn -0.9958 0.0000 0.0914
vn 0.9972 0.0000 0.0748
vn 0.9982 0.0000 -0.0592
vn 0.0550 0.0000 0.9985
vn -0.0790 0.0000 -0.9969
vn -0.0591 0.0443 -0.9973
vn 0.0591 0.0148 -0.9981
vn -0.0676 -0.0507 0.9964
vn 0.0677 -0.0169 0.9976
vn -0.0000 1.0000 -0.0000
# 40 vertex normals

vt 0.2226 0.7570 0.0000
vt 0.3733 0.7570 0.0000
vt 0.3679 0.9505 0.0000
vt 0.2226 0.9408 0.0000
vt 0.5720 0.5666 0.0000
vt 0.7280 0.5562 0.0000
vt 0.7263 0.7638 0.0000
vt 0.5539 0.7638 0.0000
vt 0.4304 0.3751 0.0000
vt 0.4304 0.2729 0.0000
vt 0.7599 0.2729 0.0000
vt 0.7599 0.3751 0.0000
vt 0.4910 0.2372 0.0000
vt 0.4910 0.1350 0.0000
vt 0.9122 0.1350 0.0000
vt 0.9122 0.2372 0.0000
vt 0.4328 0.5178 0.0000
vt 0.4328 0.4156 0.0000
vt 0.7623 0.4156 0.0000
vt 0.7623 0.5178 0.0000
vt 0.1313 0.7485 0.0000
vt 0.1934 0.7485 0.0000
vt 0.1912 0.9323 0.0000
vt 0.1313 0.9323 0.0000
vt 0.8943 0.2613 0.0000
vt 0.9020 0.2647 0.0000
vt 0.8865 0.2645 0.0000
vt 0.9100 0.2645 0.0000
vt 0.9177 0.2613 0.0000
vt 0.9262 0.3367 0.0000
vt 0.9255 0.2647 0.0000
vt 0.9177 0.4125 0.0000
vt 0.9254 0.4087 0.0000
vt 0.9100 0.4086 0.0000
vt 0.8865 0.4086 0.0000
vt 0.8943 0.4125 0.0000
vt 0.4863 0.0328 0.0000
vt 0.0565 0.0328 0.0000
vt 0.8625 0.2641 0.0000
vt 0.8625 0.3210 0.0000
vt 0.8588 0.3192 0.0000
vt 0.8588 0.2641 0.0000
vt 0.8625 0.3779 0.0000
vt 0.8388 0.3779 0.0000
vt 0.8424 0.3743 0.0000
vt 0.8588 0.3743 0.0000
vt 0.8388 0.3210 0.0000
vt 0.8424 0.3192 0.0000
vt 0.9226 0.3367 0.0000
vt 0.9219 0.2647 0.0000
vt 0.8130 0.3779 0.0000
vt 0.8130 0.3210 0.0000
vt 0.8166 0.3228 0.0000
vt 0.8166 0.3779 0.0000
vt 0.8130 0.2641 0.0000
vt 0.8367 0.2641 0.0000
vt 0.8330 0.2677 0.0000
vt 0.8166 0.2677 0.0000
vt 0.8367 0.3210 0.0000
vt 0.8330 0.3228 0.0000
vt 0.8580 0.4014 0.0000
vt 0.8559 0.3963 0.0000
vt 0.9089 0.3938 0.0000
vt 0.9131 0.3981 0.0000
vt 0.8505 0.2805 0.0000
vt 0.8505 0.2641 0.0000
vt 0.8565 0.2641 0.0000
vt 0.8565 0.2805 0.0000
vt 0.8153 0.4308 0.0000
vt 0.8562 0.4283 0.0000
vt 0.8546 0.4321 0.0000
vt 0.8153 0.4352 0.0000
vt 0.9010 0.4841 0.0000
vt 0.8978 0.4841 0.0000
vt 0.8938 0.4339 0.0000
vt 0.8970 0.4308 0.0000
vt 0.8562 0.5403 0.0000
vt 0.8546 0.5365 0.0000
vt 0.8938 0.5343 0.0000
vt 0.8970 0.5375 0.0000
vt 0.8563 0.2919 0.0000
vt 0.8563 0.3083 0.0000
vt 0.8502 0.3083 0.0000
vt 0.8502 0.2919 0.0000
vt 0.8029 0.2541 0.0000
vt 0.8580 0.2503 0.0000
vt 0.8559 0.2554 0.0000
vt 0.8029 0.2601 0.0000
vt 0.2226 0.5732 0.0000
vt 0.3679 0.5647 0.0000
vt 0.8839 0.9611 0.0000
vt 0.7280 0.9702 0.0000
vt 0.8987 0.7638 0.0000
vt 0.0698 0.2372 0.0000
vt 0.0698 0.1350 0.0000
vt 0.1313 0.5647 0.0000
vt 0.1912 0.5647 0.0000
vt 0.9161 0.0328 0.0000
vt 0.9219 0.4087 0.0000
vt 0.5241 0.7570 0.0000
vt 0.5132 0.9408 0.0000
vt 0.8839 0.5666 0.0000
vt 0.1010 0.3751 0.0000
vt 0.1010 0.2729 0.0000
vt 0.1034 0.5178 0.0000
vt 0.1034 0.4156 0.0000
vt 0.9020 0.4087 0.0000
vt 0.8388 0.2641 0.0000
vt 0.8424 0.2641 0.0000
vt 0.8367 0.3779 0.0000
vt 0.8330 0.3779 0.0000
vt 0.8029 0.3981 0.0000
vt 0.8029 0.3921 0.0000
vt 0.8153 0.5375 0.0000
vt 0.8153 0.5330 0.0000
vt 0.9131 0.2541 0.0000
vt 0.9089 0.2583 0.0000
vt 0.5132 0.5732 0.0000
vt 0.5720 0.9611 0.0000
# 119 texture coords

g Box001
usemtl wire_229166215
s 2
f 1/1/1 2/2/1 3/3/1 4/4/1 
s 4
f 5/5/2 6/6/2 7/7/2 8/8/2 
s 8
f 9/9/3 10/10/3 11/11/4 12/12/5 
s 16
f 13/13/6 14/14/7 15/15/8 16/16/9 
s 32
f 17/17/10 18/18/10 19/19/11 20/20/12 
s 64
f 1/21/13 8/22/14 21/23/15 22/24/16 
s off
f 23/25/17 24/26/17 24/26/17 23/25/17 
f 22/27/17 21/28/17 21/28/17 22/27/17 
f 25/29/17 21/28/17 21/28/17 25/29/17 
f 26/30/17 27/31/17 27/31/17 26/30/17 
f 6/32/17 28/33/17 28/33/17 6/32/17 
f 5/34/17 4/35/17 4/35/17 5/34/17 
f 3/36/17 4/35/17 4/35/17 3/36/17 
f 29/37/17 30/38/17 30/38/17 29/37/17 
f 24/39/18 23/40/18 31/41/18 32/42/18 
f 22/43/19 21/44/19 33/45/19 34/46/19 
f 25/47/20 35/48/20 33/45/20 21/44/20 
f 26/30/21 36/49/21 37/50/21 27/31/21 
f 28/51/22 6/52/22 38/53/22 39/54/22 
f 5/55/23 4/56/23 40/57/23 41/58/23 
f 3/59/24 42/60/24 40/57/24 4/56/24 
f 29/37/25 43/37/25 44/38/25 30/38/25 
f 31/61/2 17/62/2 20/63/2 32/64/2 
f 34/65/26 33/66/26 45/67/26 46/68/26 
f 33/69/1 35/70/1 18/71/1 45/72/1 
f 36/73/1 14/74/1 19/75/1 37/76/1 
f 38/77/1 10/78/1 15/79/1 39/80/1 
f 41/81/26 40/82/26 12/83/26 11/84/26 
f 40/85/27 42/86/27 9/87/27 12/88/27 
f 43/37/2 13/37/2 16/38/2 44/38/2 
s 2
f 1/1/1 22/89/1 23/90/1 2/2/1 
s 4
f 27/91/2 25/92/2 7/7/2 26/93/2 
s 16
f 20/94/28 19/95/29 14/14/7 13/13/6 
s 64
f 4/96/30 5/97/31 8/22/14 1/21/13 
s off
f 28/33/17 26/30/17 26/30/17 28/33/17 
f 24/98/17 29/37/17 29/37/17 24/98/17 
f 28/33/32 39/99/32 36/49/32 26/30/32 
f 24/98/33 32/98/33 43/37/33 29/37/33 
f 36/73/1 39/80/1 15/79/1 14/74/1 
f 43/37/2 32/98/2 20/98/2 13/37/2 
s 2
f 2/2/1 29/100/1 30/101/1 3/3/1 
s 4
f 28/102/2 26/93/2 7/7/2 6/6/2 
s 8
f 16/103/34 15/104/34 10/10/3 9/9/3 
s 32
f 46/105/35 45/106/35 18/18/10 17/17/10 
s off
f 22/27/17 23/25/17 23/25/17 22/27/17 
f 27/31/17 25/29/17 25/29/17 27/31/17 
f 5/34/17 6/32/17 6/32/17 5/34/17 
f 30/107/17 3/36/17 3/36/17 30/107/17 
f 23/40/36 22/43/36 34/46/36 31/41/36 
f 27/108/37 37/109/37 35/48/37 25/47/37 
f 6/52/38 5/55/38 41/58/38 38/53/38 
f 30/110/39 44/111/39 42/60/39 3/59/39 
f 34/112/40 46/113/40 17/62/40 31/61/40 
f 35/70/1 37/76/1 19/75/1 18/71/1 
f 41/114/1 11/115/1 10/78/1 38/77/1 
f 42/86/2 44/116/2 16/117/2 9/87/2 
s 2
f 24/118/1 29/100/1 2/2/1 23/90/1 
s 4
f 21/119/2 8/8/2 7/7/2 25/92/2 
# 58 polygons

