# 3ds Max Wavefront OBJ Exporter v0.97b - (c)2007 guruware
# File Created: 20.01.2015 17:58:25

mtllib Shirt.mtl

#
# object Box001
#

v  -15.3411 -0.0113 22.4720
v  -11.7587 1.2513 8.9759
v  -7.2311 1.2513 8.9759
v  -10.1597 1.2513 22.4720
v  -3.3866 1.2513 8.9759
v  -3.3866 1.2513 19.5111
v  3.3866 2.0976 8.9759
v  3.3866 1.2513 19.5111
v  8.8872 1.2513 8.9759
v  10.1597 1.2513 19.5111
v  15.6603 1.2513 8.9759
v  16.9328 -0.0708 22.4720
v  -16.9328 1.2513 -6.7480
v  -10.1597 1.2513 -6.7480
v  -3.3866 1.2513 -6.7480
v  -0.6691 1.2513 -6.7480
v  6.1040 1.2513 -6.7480
v  13.0162 1.1939 -6.3428
v  -14.3599 1.2513 -18.2167
v  -7.5868 1.2513 -19.9186
v  -3.3866 1.2513 -18.4431
v  3.3866 1.2513 -18.4431
v  10.1597 0.2211 -20.2441
v  13.0162 1.1939 -19.5063
v  -15.3411 0.9777 22.4720
v  -10.1597 2.2403 22.4720
v  -7.2311 2.2403 8.9759
v  -11.7587 2.2403 8.9759
v  -3.3866 2.2403 19.5111
v  -3.3866 2.2403 8.9759
v  3.3866 2.2403 19.5111
v  3.3866 3.0865 8.9759
v  10.1597 2.2403 19.5111
v  8.8872 2.2403 8.9759
v  16.9328 0.9182 22.4720
v  15.6603 2.2403 8.9759
v  -10.1597 2.2403 -6.7480
v  -16.9328 2.2403 -6.7480
v  -3.3866 2.2403 -6.7480
v  -0.6691 2.2403 -6.7480
v  6.1040 2.2403 -6.7480
v  13.0162 2.2977 -6.3428
v  -7.5868 2.2403 -19.9186
v  -14.3599 2.2403 -18.2167
v  -3.3866 2.2403 -18.4431
v  3.3866 2.2403 -18.4431
v  10.1597 1.2101 -20.2441
v  13.0162 2.2977 -19.5063
v  16.8119 1.1939 -4.8660
v  19.0834 1.2513 -13.5749
v  19.0834 2.2403 -13.5749
v  16.8119 2.2977 -4.8660
v  -23.0711 1.2513 -10.5822
v  -19.3716 0.9768 -3.8361
v  -19.3716 1.9658 -3.8361
v  -23.0711 2.2403 -10.5822
# 56 vertices

vn 0.1869 -0.9822 0.0204
vn 0.0000 -0.9989 -0.0459
vn 0.0127 -0.9998 -0.0125
vn 0.1554 -0.9873 0.0337
vn 0.0587 -0.9983 0.0048
vn 0.0201 -0.9995 -0.0226
vn -0.0261 -0.9996 -0.0130
vn -0.0235 -0.9984 -0.0523
vn -0.0610 -0.9981 -0.0069
vn -0.0664 -0.9972 -0.0347
vn -0.0297 -0.9995 -0.0138
vn -0.1564 -0.9843 -0.0817
vn 0.0000 -1.0000 -0.0000
vn -0.0007 -0.9998 0.0204
vn -0.0021 -0.9991 0.0418
vn -0.0073 -1.0000 0.0011
vn -0.1052 -0.9938 -0.0365
vn 0.1342 -0.9864 0.0949
vn 0.2057 -0.9717 0.1158
vn -0.1869 0.9822 -0.0204
vn -0.1554 0.9873 -0.0337
vn -0.0127 0.9998 0.0125
vn 0.0000 0.9989 0.0459
vn -0.0201 0.9995 0.0226
vn -0.0587 0.9983 -0.0048
vn 0.0235 0.9984 0.0523
vn 0.0261 0.9996 0.0130
vn 0.0664 0.9972 0.0347
vn 0.0598 0.9982 0.0087
vn 0.1564 0.9843 0.0817
vn 0.0297 0.9994 0.0172
vn 0.0000 1.0000 -0.0000
vn 0.0007 0.9998 -0.0204
vn -0.0057 0.9991 -0.0415
vn -0.0073 1.0000 0.0011
vn 0.1052 0.9938 0.0365
vn -0.1542 0.9829 -0.1006
vn -0.2338 0.9646 -0.1223
vn 0.0000 0.0000 1.0000
vn 0.1901 0.0000 0.9818
vn 0.2214 0.0000 0.9752
vn 0.2046 0.0000 0.9788
vn -0.2155 0.0000 0.9765
vn -0.1924 0.0000 0.9813
vn -0.4005 0.0000 0.9163
vn 0.9956 -0.0000 -0.0939
vn 0.9914 -0.0000 -0.1310
vn 0.9911 -0.0000 -0.1333
vn 0.9956 0.0000 -0.0939
vn 0.9854 0.0000 -0.1701
vn 0.9854 -0.0000 -0.1701
vn 0.9676 0.0000 0.2524
vn 0.2501 0.0000 -0.9682
vn -0.0205 0.0000 -0.9998
vn 0.0114 0.0000 -0.9999
vn -0.1353 0.0000 -0.9908
vn -0.1233 0.0000 -0.9924
vn 0.1681 0.0000 -0.9858
vn 0.0458 0.0000 -0.9990
vn -0.2437 0.0000 -0.9699
vn -0.8768 0.0000 0.4808
vn -0.9499 0.0000 0.3126
vn -0.9998 0.0000 0.0209
vn -0.9993 0.0000 0.0380
vn -0.9665 0.0000 -0.2566
vn -0.9665 -0.0000 -0.2566
vn 0.0072 -1.0000 -0.0019
vn 0.6991 -0.0000 -0.7151
vn 0.0072 1.0000 -0.0019
vn -0.3626 0.0000 0.9319
vn 0.0098 -0.9998 -0.0157
vn 0.7666 0.0000 0.6421
vn -0.0098 0.9998 0.0157
vn -0.6591 -0.0000 -0.7521
# 74 vertex normals

vt 0.8734 0.0394 0.0000
vt 0.8665 0.1488 0.0000
vt 0.8305 0.1481 0.0000
vt 0.8304 0.0397 0.0000
vt 0.7767 0.1471 0.0000
vt 0.7766 0.0387 0.0000
vt 0.7216 0.1468 0.0000
vt 0.7228 0.0377 0.0000
vt 0.6691 0.1450 0.0000
vt 0.6690 0.0366 0.0000
vt 0.6153 0.1440 0.0000
vt 0.6171 0.0345 0.0000
vt 0.8845 0.2754 0.0000
vt 0.8306 0.2743 0.0000
vt 0.7768 0.2733 0.0000
vt 0.7230 0.2723 0.0000
vt 0.6692 0.2713 0.0000
vt 0.6154 0.2703 0.0000
vt 0.8846 0.3701 0.0000
vt 0.8308 0.3827 0.0000
vt 0.7769 0.3672 0.0000
vt 0.7231 0.3662 0.0000
vt 0.6708 0.3788 0.0000
vt 0.6155 0.3650 0.0000
vt 0.1643 0.3944 0.0000
vt 0.2285 0.3950 0.0000
vt 0.2271 0.5623 0.0000
vt 0.1710 0.5618 0.0000
vt 0.3125 0.3957 0.0000
vt 0.3110 0.5630 0.0000
vt 0.3964 0.3964 0.0000
vt 0.3950 0.5637 0.0000
vt 0.4804 0.3971 0.0000
vt 0.4790 0.5644 0.0000
vt 0.5643 0.3978 0.0000
vt 0.5629 0.5652 0.0000
vt 0.2254 0.7572 0.0000
vt 0.1415 0.7565 0.0000
vt 0.3094 0.7579 0.0000
vt 0.3933 0.7586 0.0000
vt 0.4773 0.7593 0.0000
vt 0.5612 0.7601 0.0000
vt 0.2240 0.9245 0.0000
vt 0.1402 0.9027 0.0000
vt 0.3081 0.9029 0.0000
vt 0.3921 0.9036 0.0000
vt 0.4758 0.9266 0.0000
vt 0.5600 0.9063 0.0000
vt 0.4217 0.1728 0.0000
vt 0.3633 0.1586 0.0000
vt 0.3633 0.1474 0.0000
vt 0.4217 0.1616 0.0000
vt 0.2871 0.1586 0.0000
vt 0.2871 0.1474 0.0000
vt 0.2108 0.1586 0.0000
vt 0.2108 0.1474 0.0000
vt 0.1345 0.1586 0.0000
vt 0.1345 0.1474 0.0000
vt 0.0582 0.1734 0.0000
vt 0.0582 0.1623 0.0000
vt 0.6138 0.1449 0.0000
vt 0.6156 0.0353 0.0000
vt 0.6139 0.2711 0.0000
vt 0.4866 0.1896 0.0000
vt 0.3948 0.1896 0.0000
vt 0.3948 0.1785 0.0000
vt 0.4866 0.1785 0.0000
vt 0.6694 0.3796 0.0000
vt 0.6140 0.3658 0.0000
vt 0.4890 0.1424 0.0000
vt 0.4127 0.1308 0.0000
vt 0.4127 0.1196 0.0000
vt 0.4890 0.1312 0.0000
vt 0.3364 0.1308 0.0000
vt 0.3364 0.1196 0.0000
vt 0.8293 0.3836 0.0000
vt 0.7755 0.3681 0.0000
vt 0.2601 0.1308 0.0000
vt 0.1838 0.1308 0.0000
vt 0.1838 0.1196 0.0000
vt 0.2601 0.1196 0.0000
vt 0.1769 0.2158 0.0000
vt 0.0582 0.2158 0.0000
vt 0.0582 0.2046 0.0000
vt 0.1769 0.2046 0.0000
vt 0.3876 0.1966 0.0000
vt 0.2106 0.1896 0.0000
vt 0.2111 0.1785 0.0000
vt 0.3880 0.1854 0.0000
vt 0.0582 0.1979 0.0000
vt 0.0586 0.1868 0.0000
vt 0.5328 0.3235 0.0000
vt 0.5884 0.2591 0.0000
vt 0.5313 0.3244 0.0000
vt 0.6035 0.7440 0.0000
vt 0.6895 0.8458 0.0000
vt 0.4679 0.1474 0.0000
vt 0.4679 0.1586 0.0000
vt 0.4268 0.1586 0.0000
vt 0.4268 0.1474 0.0000
vt 0.9155 0.2694 0.0000
vt 0.9731 0.3319 0.0000
vt 0.8830 0.2762 0.0000
vt 0.9140 0.2702 0.0000
vt 0.0025 0.8399 0.0000
vt 0.0932 0.7459 0.0000
vt 0.0582 0.1308 0.0000
vt 0.0582 0.1196 0.0000
# 108 texture coords

g Box001
usemtl Material__2
s 2
f 1/1/1 2/2/2 3/3/3 4/4/4 
f 4/4/4 3/3/3 5/5/5 6/6/6 
f 6/6/6 5/5/5 7/7/7 8/8/8 
f 8/8/8 7/7/7 9/9/9 10/10/10 
f 10/10/10 9/9/9 11/11/11 12/12/12 
f 2/2/2 13/13/13 14/14/13 3/3/3 
f 3/3/3 14/14/13 15/15/13 5/5/5 
f 5/5/5 15/15/13 16/16/14 7/7/7 
f 7/7/7 16/16/14 17/17/15 9/9/9 
f 9/9/9 17/17/15 18/18/16 11/11/11 
f 13/13/13 19/19/13 20/20/13 14/14/13 
f 14/14/13 20/20/13 21/21/13 15/15/13 
f 15/15/13 21/21/13 22/22/17 16/16/14 
f 16/16/14 22/22/17 23/23/18 17/17/15 
f 17/17/15 23/23/18 24/24/19 18/18/16 
s 4
f 25/25/20 26/26/21 27/27/22 28/28/23 
f 26/26/21 29/29/24 30/30/25 27/27/22 
f 29/29/24 31/31/26 32/32/27 30/30/25 
f 31/31/26 33/33/28 34/34/29 32/32/27 
f 33/33/28 35/35/30 36/36/31 34/34/29 
f 28/28/23 27/27/22 37/37/32 38/38/32 
f 27/27/22 30/30/25 39/39/32 37/37/32 
f 30/30/25 32/32/27 40/40/33 39/39/32 
f 32/32/27 34/34/29 41/41/34 40/40/33 
f 34/34/29 36/36/31 42/42/35 41/41/34 
f 38/38/32 37/37/32 43/43/32 44/44/32 
f 37/37/32 39/39/32 45/45/32 43/43/32 
f 39/39/32 40/40/33 46/46/36 45/45/32 
f 40/40/33 41/41/34 47/47/37 46/46/36 
f 41/41/34 42/42/35 48/48/38 47/47/37 
s 8
f 1/49/39 4/50/40 26/51/41 25/52/39 
f 4/50/40 6/53/42 29/54/42 26/51/41 
f 6/53/42 8/55/39 31/56/39 29/54/42 
f 8/55/39 10/57/43 33/58/44 31/56/39 
f 10/57/43 12/59/45 35/60/45 33/58/44 
s 16
f 12/12/46 11/11/47 36/61/48 35/62/49 
f 11/11/47 18/18/50 42/63/51 36/61/48 
f 49/64/52 50/65/52 51/66/52 52/67/52 
s 32
f 24/24/53 23/23/54 47/68/55 48/69/53 
f 23/70/54 22/71/56 46/72/57 47/73/55 
f 22/71/56 21/74/58 45/75/58 46/72/57 
f 21/21/58 20/20/59 43/76/59 45/77/58 
f 20/78/59 19/79/60 44/80/60 43/81/59 
s 64
f 53/82/61 54/83/61 55/84/61 56/85/61 
f 13/86/62 2/87/63 28/88/64 38/89/62 
f 2/87/63 1/90/65 25/91/66 28/88/64 
s off
f 18/18/67 24/24/67 50/92/67 49/93/67 
f 24/24/68 48/69/68 51/94/68 50/92/68 
f 48/48/69 42/42/69 52/95/69 51/96/69 
f 42/97/70 18/98/70 49/99/70 52/100/70 
f 19/19/71 13/13/71 54/101/71 53/102/71 
f 13/13/72 38/103/72 55/104/72 54/101/72 
f 38/38/73 44/44/73 56/105/73 55/106/73 
f 44/80/74 19/79/74 53/107/74 56/108/74 
# 54 polygons

